<?xml version="1.0" standalone="no"?>
<!DOCTYPE svg PUBLIC "-//W3C//DTD SVG 20010904//EN"
 "http://www.w3.org/TR/2001/REC-SVG-20010904/DTD/svg10.dtd">
<svg version="1.0" xmlns="http://www.w3.org/2000/svg"
 width="260.000000pt" height="260.000000pt" viewBox="0 0 260.000000 260.000000"
 preserveAspectRatio="xMidYMid meet">
<metadata>
Created by potrace 1.11, written by Peter Selinger 2001-2013
</metadata>
<g transform="translate(0.000000,260.000000) scale(0.100000,-0.100000)"
fill="#000000" stroke="none">
<path d="M1129 2351 c-422 -78 -743 -369 -857 -781 -24 -86 -27 -111 -27 -270
0 -159 3 -184 27 -270 105 -377 381 -653 758 -758 86 -24 111 -27 270 -27 159
0 184 3 270 27 377 105 653 381 758 758 24 86 27 111 27 270 0 159 -3 184 -27
270 -104 375 -381 653 -753 757 -74 20 -118 25 -245 28 -85 2 -176 0 -201 -4z
m211 -186 l34 -35 -74 0 -74 0 34 35 c19 19 37 35 40 35 3 0 21 -16 40 -35z
m104 -589 c107 -52 161 -143 161 -271 0 -129 -54 -219 -163 -272 -49 -24 -69
-28 -142 -28 -73 0 -93 4 -142 28 -239 117 -217 469 35 559 74 26 177 20 251
-16z m-974 -278 l0 -73 -37 37 -37 38 34 35 c19 19 35 35 37 35 2 0 3 -33 3
-72z m1697 -35 l-37 -38 0 75 0 75 37 -38 38 -37 -38 -37z m-830 -830 l-37
-38 -37 38 -38 37 75 0 75 0 -38 -37z"/>
</g>
</svg>
